<svg xmlns="http://www.w3.org/2000/svg" viewBox="0 0 576 512">
    <path stroke="null" fill="white" d="m569.354019,231.631c-56.385,-95.682 -161.544,-159.631 -281.354,-159.631c-119.86,0 -224.996,63.994 -281.354,159.631a47.999,47.999 0 0 0 0,48.739c56.385,95.681 161.544,159.63 281.354,159.63c119.86,0 224.996,-63.994 281.354,-159.631a47.997,47.997 0 0 0 0,-48.738zm-281.354,160.369c-75.162,0 -136,-60.827 -136,-136c0,-75.162 60.826,-136 136,-136c75.162,0 136,60.826 136,136c0,75.162 -60.826,136 -136,136z"/>
    <path stroke="null" fill="#ff0000" d="m397.338481,256.000008c0,60.38637 -48.9521,109.33847 -109.33848,109.33847s-109.33847,-48.9521 -109.33847,-109.33847c0,-18.61698 4.65845,-36.14373 12.86409,-51.48686l-0.00105,0.03364c0,24.86504 20.15718,45.02117 45.02222,45.02117s45.02222,-20.15718 45.02222,-45.02117c0,-24.86504 -20.15718,-45.02221 -45.02222,-45.02221l-0.03364,0.00105c15.34313,-8.20565 32.86988,-12.8641 51.48685,-12.8641c60.38638,0 109.33848,48.9521 109.33848,109.33848z"/>
</svg>